<svg width="19" height="19" viewBox="0 0 19 19" fill="none" xmlns="http://www.w3.org/2000/svg">
<path d="M12.5263 6.0915C11.9769 5.60267 11.3171 5.25431 10.6036 5.07625C9.8901 4.89819 9.14406 4.89576 8.42939 5.06914C8.55557 5.23799 9.38496 6.36611 10.1327 7.74102C11.7562 7.13242 12.4428 6.2084 12.5263 6.0915ZM10.2793 10.257C7.70576 11.1532 6.77988 12.94 6.69824 13.107C7.47197 13.7101 8.44424 14.07 9.5 14.07C10.1327 14.07 10.7357 13.942 11.2831 13.7082C11.2145 13.3074 10.951 11.9121 10.309 10.2459L10.2793 10.257ZM11.1644 10.0362C11.7618 11.6765 12.0049 13.0124 12.0513 13.2907C13.0755 12.5986 13.8047 11.5021 14.0069 10.2311C13.8511 10.1828 12.5949 9.80801 11.1644 10.0362ZM9.5 1.1875C4.90957 1.1875 1.1875 4.90957 1.1875 9.5C1.1875 14.0904 4.90957 17.8125 9.5 17.8125C14.0904 17.8125 17.8125 14.0904 17.8125 9.5C17.8125 4.90957 14.0904 1.1875 9.5 1.1875ZM9.5 14.8438C6.55352 14.8438 4.15625 12.4465 4.15625 9.5C4.15625 6.55352 6.55352 4.15625 9.5 4.15625C12.4465 4.15625 14.8438 6.55352 14.8438 9.5C14.8438 12.4465 12.4465 14.8438 9.5 14.8438ZM10.4853 8.42012C10.591 8.63721 10.6931 8.85801 10.7877 9.08066C10.8211 9.15859 10.8545 9.23652 10.886 9.31631C12.4038 9.1252 13.9142 9.43135 14.0645 9.46289C14.0552 8.38486 13.6692 7.3959 13.0347 6.61846C12.9363 6.7502 12.1719 7.73174 10.4853 8.42012ZM9.25137 8.01562C8.49434 6.67041 7.67979 5.54043 7.55918 5.37529C6.28262 5.97832 5.32705 7.15469 5.03203 8.57041C5.23613 8.57412 7.11758 8.5834 9.25137 8.01562ZM9.81914 9.54639C9.87852 9.52783 9.93789 9.50928 9.99912 9.49258C9.88408 9.23281 9.75977 8.97305 9.62988 8.71885C7.35137 9.40166 5.13779 9.37197 4.93926 9.36826C4.9374 9.41465 4.9374 9.46104 4.9374 9.50742C4.9374 10.6801 5.38086 11.7507 6.11006 12.5597C6.21211 12.3815 7.46455 10.3071 9.81914 9.54639Z" fill="white"/>
</svg>
