<svg width="19" height="19" viewBox="0 0 19 19" fill="none" xmlns="http://www.w3.org/2000/svg">
<path d="M9.49997 7.02677C8.13805 7.02677 7.02663 8.1382 7.02663 9.50011C7.02663 10.862 8.13805 11.9734 9.49997 11.9734C10.8619 11.9734 11.9733 10.862 11.9733 9.50011C11.9733 8.1382 10.8619 7.02677 9.49997 7.02677ZM16.9181 9.50011C16.9181 8.47589 16.9274 7.46095 16.8699 6.43859C16.8124 5.25109 16.5415 4.19718 15.6731 3.32882C14.8029 2.45861 13.7508 2.18957 12.5633 2.13205C11.5391 2.07453 10.5242 2.0838 9.50182 2.0838C8.4776 2.0838 7.46266 2.07453 6.4403 2.13205C5.2528 2.18957 4.19889 2.46046 3.33053 3.32882C2.46032 4.19904 2.19127 5.25109 2.13376 6.43859C2.07624 7.46281 2.08551 8.47775 2.08551 9.50011C2.08551 10.5225 2.07624 11.5393 2.13376 12.5616C2.19127 13.7491 2.46217 14.803 3.33053 15.6714C4.20075 16.5416 5.2528 16.8107 6.4403 16.8682C7.46452 16.9257 8.47946 16.9164 9.50182 16.9164C10.526 16.9164 11.541 16.9257 12.5633 16.8682C13.7508 16.8107 14.8048 16.5398 15.6731 15.6714C16.5433 14.8012 16.8124 13.7491 16.8699 12.5616C16.9293 11.5393 16.9181 10.5243 16.9181 9.50011ZM9.49997 13.3057C7.39401 13.3057 5.6944 11.6061 5.6944 9.50011C5.6944 7.39415 7.39401 5.69455 9.49997 5.69455C11.6059 5.69455 13.3055 7.39415 13.3055 9.50011C13.3055 11.6061 11.6059 13.3057 9.49997 13.3057ZM13.4614 6.42745C12.9697 6.42745 12.5726 6.03039 12.5726 5.53869C12.5726 5.04699 12.9697 4.64992 13.4614 4.64992C13.9531 4.64992 14.3502 5.04699 14.3502 5.53869C14.3503 5.65544 14.3274 5.77108 14.2828 5.87898C14.2382 5.98687 14.1727 6.08491 14.0902 6.16747C14.0076 6.25003 13.9096 6.31549 13.8017 6.3601C13.6938 6.40471 13.5782 6.4276 13.4614 6.42745Z" fill="white"/>
</svg>
