<svg width="96" height="54" viewBox="0 0 96 54" fill="none" xmlns="http://www.w3.org/2000/svg">
<path d="M81.8858 0.891842C79.2127 2.22837 78.7672 3.78766 78.8786 11.417C79.0456 17.9326 78.99 18.1554 77.8205 18.4895C76.3169 18.8793 76.5953 20.2159 78.2103 20.4386C79.157 20.55 79.4355 21.1626 79.7139 23.5015C80.1594 27.0099 81.1061 30.0171 81.7187 30.0171C82.8325 30.0171 83.278 28.5135 82.8325 26.1189C81.8301 21.1626 82.0528 20.0488 84.2247 19.0464C86.7307 17.8769 86.7307 16.9859 84.2804 17.4314C83.2223 17.6542 82.2199 17.5428 82.0528 17.2644C81.8858 16.9859 81.4403 14.3128 81.1618 11.3057C80.6606 6.34935 80.6606 5.68108 81.6073 4.45593C83.3894 2.06131 84.2804 1.78286 85.784 3.17508C87.2876 4.5673 87.8445 4.73437 87.8445 3.62059C87.8445 2.61819 85.2828 -0.0548668 84.3918 0.000822067C84.0019 0.000822067 82.8882 0.390644 81.8858 0.891842Z" fill="white"/>
<path d="M24.7491 1.94996C24.5264 2.17272 24.4707 2.84099 24.6377 3.50925C25.5288 8.18711 25.5288 8.29849 24.0252 8.29849C22.2431 8.29849 22.3545 10.1362 24.1922 10.4147C25.6958 10.6374 26.0856 12.5865 26.3641 21.8309C26.5312 29.5159 26.7539 30.4626 28.0904 29.4045C28.7587 28.8477 28.8701 27.1213 28.703 19.5476L28.5359 10.359L30.6521 9.7464C33.6036 8.91107 33.4923 8.07574 30.3737 7.85298C27.812 7.68591 27.7563 7.63022 27.3665 5.62543C27.1994 4.51165 26.921 3.11943 26.7539 2.56254C26.5312 1.61583 25.4174 1.2817 24.7491 1.94996Z" fill="white"/>
<path d="M90.4062 2.117C90.1834 2.45114 90.1834 3.95473 90.4062 5.51402C90.6846 7.79726 90.6289 8.29846 89.905 8.29846C89.4038 8.29846 88.3457 8.57691 87.4547 8.91104C86.2295 9.35655 86.1181 9.5793 86.7307 9.96913C87.1762 10.3033 88.3457 10.526 89.3481 10.526C91.0187 10.526 91.0744 10.6374 91.5199 13.4218C91.7984 15.0368 92.0211 19.2692 92.0211 22.7776C92.0211 28.068 92.1882 29.1818 92.8565 29.1818C93.5804 29.1818 93.6918 27.7339 93.6918 19.7147C93.6918 11.0272 93.7475 10.2476 94.6942 10.0805C96.0307 9.80206 95.6409 8.07571 94.193 7.85295C93.302 7.74157 92.9678 7.07331 92.5223 4.84576C92.0211 2.06132 91.1301 0.94754 90.4062 2.117Z" fill="white"/>
<path d="M5.03521 3.34216C3.92144 3.6763 2.91904 4.51163 2.36215 5.51403C1.19269 7.79727 1.30406 7.96433 3.0861 6.6278C3.92144 6.01523 5.36935 5.40265 6.20468 5.34696C8.5993 5.17989 9.49032 8.18709 9.1005 14.7584C8.76636 20.9398 8.43223 21.8308 7.0957 21.1069C3.53161 19.2135 -1.369 22.8332 0.357353 26.0632C1.41544 27.9566 3.81006 29.0147 7.48552 29.2375C10.4927 29.4045 10.9939 29.2931 10.9939 28.4578C10.9939 27.9566 11.1053 23.4458 11.2724 18.4895C11.6065 8.57691 11.0496 4.90145 9.15618 3.56492C7.81965 2.61821 7.54121 2.61821 5.03521 3.34216ZM6.98432 23.4458C7.26276 23.8356 7.65259 24.671 7.76396 25.2836C7.87534 26.1746 7.5969 26.453 6.14899 26.5644C3.03042 26.8985 1.08131 25.1165 2.75197 23.4458C3.64299 22.5548 6.26037 22.6105 6.98432 23.4458Z" fill="white"/>
<path d="M68.5205 3.34214C67.4067 3.67627 66.4044 4.51161 65.8475 5.51401C64.678 7.79725 64.7894 7.96431 66.5714 6.62778C67.4067 6.0152 68.8547 5.40263 69.69 5.34694C72.2517 5.17987 72.9756 8.02 72.4744 16.8188C72.2517 20.717 71.9175 24.0584 71.6948 24.1698C71.472 24.3368 70.5253 24.0584 69.69 23.6129C67.5181 22.4991 66.3487 22.5548 65.0121 23.8913C63.4528 25.4506 63.6199 26.2302 65.6247 27.7338C67.9636 29.4602 74.4792 30.0171 74.4792 28.4578C74.4792 27.9566 74.5906 23.2787 74.7577 18.1554C75.0918 8.02 74.6463 4.95712 72.6415 3.5649C71.305 2.61819 71.0265 2.61819 68.5205 3.34214ZM69.4672 26.1189C71.0265 27.344 70.4696 27.5111 67.9079 26.6201C66.9056 26.2859 66.293 25.7847 66.46 25.5063C66.9056 24.7266 67.9636 24.9494 69.4672 26.1189Z" fill="white"/>
<path d="M46.6347 5.34691C43.5718 6.9062 41.9569 10.7487 41.9012 16.3733C41.9012 22.332 42.8479 25.1164 45.5766 26.9542C47.9713 28.5135 48.7509 28.6248 50.8114 27.6781C52.4821 26.8985 52.4821 25.1721 50.8114 25.4506C46.579 26.1745 45.2982 25.0607 44.3515 19.7146C43.1263 13.199 45.6323 7.12895 49.9204 6.29362C50.9228 6.07087 51.591 5.62536 51.4797 5.29122C51.1455 4.28882 48.6952 4.28882 46.6347 5.34691Z" fill="white"/>
<path d="M54.7096 11.1943C55.4335 25.9518 55.7677 28.3464 57.2156 28.3464C57.494 28.3464 57.6611 25.1165 57.6611 20.9398C57.5497 12.4751 57.8839 11.3057 61.2252 8.24277C62.506 7.07331 63.397 5.95953 63.23 5.79247C62.7288 5.29127 59.2761 6.90624 58.1066 8.24277L57.0485 9.41224L56.0461 7.18469C55.4892 5.95953 54.8767 4.95714 54.7096 4.95714C54.5425 4.95714 54.5425 7.79726 54.7096 11.1943Z" fill="white"/>
<path d="M14.1125 5.95953C13.9455 6.23798 14.0568 10.8045 14.391 16.0949C14.7808 23.056 15.1706 26.0632 15.8389 27.0099C16.2844 27.7339 16.8413 28.3464 17.064 28.3464C17.2311 28.3464 17.2868 25.4506 17.2311 21.9422C16.9527 13.8673 17.8437 10.8045 21.0736 8.24277C22.2988 7.29607 23.1898 6.34936 23.0227 6.23798C22.4658 5.68109 19.9598 6.6278 18.2892 8.07571L16.6185 9.46793L16.1173 7.68589C15.6718 5.84816 14.7251 5.01283 14.1125 5.95953Z" fill="white"/>
<path d="M16.704 42.904C16.704 39.856 16.536 38.32 15.792 37.456C15.288 36.88 14.64 36.592 13.896 36.592C13.32 36.592 12.888 36.76 12.504 37.024C12.288 37.168 11.928 37.504 11.808 37.768V36.784H10.488V53.872H11.832V48.088C12 48.352 12.288 48.664 12.504 48.808C12.888 49.072 13.32 49.192 13.896 49.192C14.736 49.192 15.288 48.904 15.792 48.328C16.536 47.464 16.704 45.952 16.704 42.904ZM15.36 42.904C15.36 45.664 15.288 46.816 14.736 47.464C14.472 47.776 14.064 47.992 13.56 47.992C13.104 47.992 12.696 47.824 12.408 47.536C12.024 47.176 11.832 46.648 11.832 45.856V39.928C11.832 39.136 12.024 38.608 12.408 38.248C12.696 37.96 13.104 37.792 13.56 37.792C14.064 37.792 14.472 38.032 14.736 38.344C15.288 38.968 15.36 40.144 15.36 42.904Z" fill="white"/>
<path d="M23.2851 37.864V36.592C22.4691 36.592 21.7491 36.808 21.1971 37.312C21.0051 37.48 20.7171 37.816 20.5971 38.08V36.784H19.2771V49H20.6211V40.24C20.6211 38.776 21.5571 37.864 22.9971 37.864H23.2851Z" fill="white"/>
<path d="M30.9707 42.904C30.9707 40.024 30.8027 38.464 30.0587 37.576C29.5307 36.928 28.7867 36.592 27.8027 36.592C26.8187 36.592 26.0747 36.928 25.5467 37.576C24.8027 38.464 24.6347 40.024 24.6347 42.904C24.6347 45.784 24.8027 47.344 25.5467 48.232C26.0747 48.88 26.8187 49.192 27.8027 49.192C28.7867 49.192 29.5307 48.88 30.0587 48.232C30.8027 47.344 30.9707 45.784 30.9707 42.904ZM29.6267 42.904C29.6267 45.52 29.5547 46.768 29.0027 47.44C28.7387 47.752 28.3307 47.992 27.8027 47.992C27.2747 47.992 26.8427 47.752 26.5787 47.44C26.0267 46.768 25.9787 45.52 25.9787 42.904C25.9787 40.288 26.0267 39.016 26.5787 38.344C26.8427 38.032 27.2747 37.792 27.8027 37.792C28.3307 37.792 28.7387 38.032 29.0027 38.344C29.5547 39.016 29.6267 40.288 29.6267 42.904Z" fill="white"/>
<path d="M39.2877 49V31.912H37.9437V37.696C37.7757 37.432 37.5117 37.144 37.2957 36.976C36.9597 36.736 36.4557 36.592 35.9037 36.592C35.0397 36.592 34.4397 36.928 34.0077 37.456C33.2637 38.344 33.0957 39.856 33.0957 42.904C33.0957 45.952 33.2637 47.488 34.0077 48.328C34.5117 48.904 35.1597 49.192 35.9037 49.192C36.4557 49.192 36.8877 49.048 37.2957 48.76C37.5117 48.616 37.8477 48.28 37.9677 48.016V49H39.2877ZM37.9437 45.856C37.9437 46.648 37.7517 47.176 37.3917 47.536C37.0797 47.824 36.6957 47.992 36.2157 47.992C35.7357 47.992 35.3277 47.776 35.0637 47.464C34.5117 46.816 34.4397 45.664 34.4397 42.904C34.4397 40.144 34.5117 38.968 35.0637 38.344C35.3277 38.032 35.7357 37.792 36.2157 37.792C36.6957 37.792 37.0797 37.96 37.3917 38.248C37.7517 38.608 37.9437 39.136 37.9437 39.928V45.856Z" fill="white"/>
<path d="M48.2453 49V36.784H46.9013V45.976C46.9013 47.32 46.1333 47.968 45.1973 47.968C44.2613 47.968 43.5173 47.32 43.5173 45.976V36.784H42.1733V45.952C42.1733 47.176 42.4373 47.872 42.9173 48.376C43.4213 48.904 44.0213 49.192 44.8373 49.192C45.3893 49.192 45.8453 49.024 46.2293 48.76C46.4453 48.616 46.7813 48.28 46.9253 48.016V49H48.2453Z" fill="white"/>
<path d="M57.0064 45.784H55.6864C55.6864 46.504 55.5904 47.08 55.1824 47.512C54.8704 47.824 54.4624 47.992 54.0064 47.992C53.4784 47.992 53.0224 47.776 52.7584 47.44C52.2304 46.768 52.1584 45.52 52.1584 42.904C52.1584 40.288 52.2304 39.016 52.7584 38.344C53.0224 38.008 53.4784 37.792 54.0064 37.792C54.5104 37.792 54.9184 37.96 55.2064 38.296C55.6624 38.776 55.6864 39.4 55.6864 40.024H57.0064C56.9824 39.016 56.8624 38.056 56.1424 37.36C55.5904 36.808 54.9184 36.592 53.9824 36.592C53.0464 36.592 52.2544 36.928 51.7264 37.576C50.9824 38.44 50.8144 40.024 50.8144 42.904C50.8144 45.784 50.9824 47.368 51.7264 48.232C52.2544 48.856 53.0464 49.192 53.9824 49.192C54.9184 49.192 55.6144 48.928 56.1424 48.4C56.7664 47.776 56.9824 46.936 57.0064 45.784Z" fill="white"/>
<path d="M63.2907 49V47.8C61.8747 47.8 61.1067 47.2 61.1067 45.736V37.84H63.1947V36.784H61.1067V33.208H59.7627V36.784H58.2747V37.84H59.7627V45.736C59.7627 46.864 60.0747 47.68 60.6747 48.232C61.3947 48.904 62.3067 49 63.2907 49Z" fill="white"/>
<path d="M66.6055 49V36.784H65.2615V49H66.6055ZM66.7975 33.976V32.248H65.0695V33.976H66.7975Z" fill="white"/>
<path d="M75.5254 42.904C75.5254 40.024 75.3574 38.464 74.6134 37.576C74.0854 36.928 73.3414 36.592 72.3574 36.592C71.3734 36.592 70.6294 36.928 70.1014 37.576C69.3574 38.464 69.1894 40.024 69.1894 42.904C69.1894 45.784 69.3574 47.344 70.1014 48.232C70.6294 48.88 71.3734 49.192 72.3574 49.192C73.3414 49.192 74.0854 48.88 74.6134 48.232C75.3574 47.344 75.5254 45.784 75.5254 42.904ZM74.1814 42.904C74.1814 45.52 74.1094 46.768 73.5574 47.44C73.2934 47.752 72.8854 47.992 72.3574 47.992C71.8294 47.992 71.3974 47.752 71.1334 47.44C70.5814 46.768 70.5334 45.52 70.5334 42.904C70.5334 40.288 70.5814 39.016 71.1334 38.344C71.3974 38.032 71.8294 37.792 72.3574 37.792C72.8854 37.792 73.2934 38.032 73.5574 38.344C74.1094 39.016 74.1814 40.288 74.1814 42.904Z" fill="white"/>
<path d="M84.1303 49V39.832C84.1303 38.608 83.8664 37.936 83.3864 37.432C82.8824 36.904 82.2824 36.592 81.4664 36.592C80.9144 36.592 80.4584 36.76 80.0743 37.024C79.8583 37.168 79.5223 37.504 79.3783 37.768V36.784H78.0583V49H79.4024V39.808C79.4024 38.464 80.1704 37.816 81.1064 37.816C82.0424 37.816 82.7864 38.464 82.7864 39.808V49H84.1303Z" fill="white"/>
</svg>
