<svg width="16" height="16" viewBox="0 0 16 16" fill="none" xmlns="http://www.w3.org/2000/svg">
<g clip-path="url(#clip0)">
<path d="M7.93384 0.247314C3.60348 0.247314 0.247559 3.41213 0.247559 7.68682C0.247559 9.92266 1.16632 11.8548 2.66183 13.1895C2.92005 13.4218 2.86686 13.5563 2.91077 14.9903C2.91423 15.0907 2.94221 15.1888 2.99228 15.2759C3.04234 15.3631 3.11296 15.4366 3.19799 15.4902C3.28302 15.5438 3.37986 15.5758 3.48008 15.5833C3.5803 15.5909 3.68085 15.5738 3.77295 15.5336C5.40916 14.8131 5.43019 14.7562 5.70758 14.8316C10.448 16.1363 15.5861 13.1026 15.5861 7.68682C15.5861 3.41213 12.2645 0.247314 7.93384 0.247314ZM12.549 5.97236L10.2915 9.54631C10.2063 9.6807 10.0942 9.79603 9.96228 9.88508C9.83038 9.97413 9.68151 10.035 9.52499 10.0638C9.36848 10.0926 9.20769 10.0888 9.05272 10.0526C8.89774 10.0164 8.75192 9.94858 8.62438 9.85339L6.82829 8.5091C6.74799 8.44888 6.65033 8.41633 6.54997 8.41633C6.4496 8.41633 6.35194 8.44888 6.27165 8.5091L3.8481 10.3472C3.52463 10.5925 3.10096 10.205 3.31898 9.86266L5.57647 6.28872C5.66168 6.15429 5.77375 6.03892 5.90566 5.94985C6.03756 5.86077 6.18644 5.79991 6.34297 5.77108C6.4995 5.74224 6.66029 5.74606 6.81528 5.7823C6.97026 5.81853 7.11608 5.8864 7.2436 5.98164L9.03908 7.32562C9.11937 7.38584 9.21703 7.41839 9.3174 7.41839C9.41777 7.41839 9.51543 7.38584 9.59572 7.32562L12.0205 5.48932C12.3434 5.24255 12.767 5.62972 12.549 5.97236Z" fill="white"/>
</g>
<defs>
<clipPath id="clip0">
<rect width="15.8333" height="15.8333" fill="white"/>
</clipPath>
</defs>
</svg>
