<svg width="19" height="19" viewBox="0 0 19 19" fill="none" xmlns="http://www.w3.org/2000/svg">
<path d="M18.7173 3.90842C18.0562 4.20133 17.3461 4.39925 16.5996 4.48871C17.3699 4.02779 17.9462 3.30237 18.2209 2.44779C17.4972 2.87766 16.7051 3.18024 15.8792 3.34238C15.3237 2.74931 14.588 2.35622 13.7862 2.22413C12.9845 2.09203 12.1616 2.22834 11.4452 2.61187C10.7289 2.9954 10.1592 3.6047 9.82461 4.34518C9.49004 5.08566 9.40929 5.91589 9.59491 6.70696C8.12849 6.63333 6.69395 6.25219 5.38437 5.58826C4.07479 4.92433 2.91945 3.99246 1.99332 2.85313C1.67666 3.39938 1.49457 4.03271 1.49457 4.70721C1.49422 5.31441 1.64375 5.91232 1.92989 6.44787C2.21604 6.98343 2.62995 7.44007 3.13491 7.77729C2.54929 7.75866 1.9766 7.60042 1.46449 7.31575V7.36325C1.46443 8.21488 1.75902 9.0403 2.29826 9.69946C2.8375 10.3586 3.58819 10.8109 4.42295 10.9796C3.87969 11.1266 3.31013 11.1483 2.75728 11.0429C2.9928 11.7757 3.45157 12.4165 4.06936 12.8756C4.68716 13.3347 5.43305 13.5891 6.20262 13.6032C4.89623 14.6287 3.28286 15.185 1.62203 15.1825C1.32783 15.1826 1.03388 15.1654 0.741699 15.1311C2.42753 16.215 4.38997 16.7903 6.3942 16.788C13.1788 16.788 16.8877 11.1688 16.8877 6.29529C16.8877 6.13696 16.8838 5.97704 16.8767 5.81871C17.5981 5.29698 18.2208 4.65092 18.7157 3.91079L18.7173 3.90842Z" fill="white"/>
</svg>
