<svg width="19" height="19" viewBox="0 0 19 19" fill="none" xmlns="http://www.w3.org/2000/svg">
<g clip-path="url(#clip0)">
<path d="M18.6042 5.15148C18.4966 4.7677 18.287 4.42025 17.9978 4.14606C17.7003 3.86344 17.3358 3.66127 16.9385 3.55864C15.4518 3.16677 9.49525 3.16677 9.49525 3.16677C7.01205 3.13852 4.52947 3.26278 2.0615 3.53885C1.66423 3.64906 1.30036 3.85574 1.00225 4.14052C0.709334 4.42235 0.497167 4.76989 0.386334 5.15068C0.120091 6.58498 -0.0092685 8.04133 3.22179e-07 9.5001C-0.00949968 10.9576 0.119542 12.4134 0.386334 13.8495C0.494792 14.2287 0.706167 14.5747 0.999875 14.8541C1.29358 15.1336 1.65933 15.3355 2.0615 15.4424C3.56804 15.8334 9.49525 15.8334 9.49525 15.8334C11.9816 15.8617 14.4674 15.7375 16.9385 15.4614C17.3358 15.3587 17.7003 15.1566 17.9978 14.8739C18.2907 14.5945 18.4989 14.2469 18.6034 13.8685C18.8766 12.4348 19.0094 10.9778 19 9.51831C19.0205 8.05262 18.8879 6.5888 18.6042 5.15068V5.15148ZM7.60158 12.2108V6.79023L12.5574 9.50089L7.60158 12.2108Z" fill="white"/>
</g>
<defs>
<clipPath id="clip0">
<rect width="19" height="19" fill="white"/>
</clipPath>
</defs>
</svg>
